<svg xmlns="http://www.w3.org/2000/svg" width="37.432" height="21.825" viewBox="0 0 37.432 21.825"><defs><style>.a{fill:#374757;}</style></defs><path class="a" d="M351.332,48.555h0l-1.04-.008a.1.1,0,0,1-.1-.1L350.4,41.8a.1.1,0,0,1,.1-.1.1.1,0,0,1,.107.1l.827,6.654a.1.1,0,0,1-.1.112Zm-.938-.211.825.006-.636-5.128Z" transform="translate(-316.903 -37.735)"/><path class="a" d="M335.842,79.7a2,2,0,0,1-.375-.034l-.03-.007a1.642,1.642,0,0,1-.448-.163h0a3.851,3.851,0,0,1-1.265-2,1.61,1.61,0,0,1,.07-1.259l0-.007a.837.837,0,0,1,.736-.346,1.1,1.1,0,0,1,.791.653,2.623,2.623,0,0,1,.274.717,6.34,6.34,0,0,1,0,1.892l.048-.087a5.316,5.316,0,0,1,1.163-1.557c.37-.311.876-.737,1.387-.557a1.117,1.117,0,0,1,.641,1.265c-.081.285-.285.425-.651.684a3.517,3.517,0,0,1-.922.484A4.373,4.373,0,0,1,335.842,79.7Zm-.1-.274a3.888,3.888,0,0,0,1.426-.3,3.262,3.262,0,0,0,.855-.449c.351-.247.494-.355.548-.537a.852.852,0,0,0-.47-.933c-.364-.127-.784.225-1.122.509a5.026,5.026,0,0,0-1.1,1.477c-.05.088-.093.166-.132.232Zm-.632-.17a1.255,1.255,0,0,0,.18.081c0-.063.014-.135.025-.215a6.069,6.069,0,0,0,.007-1.824c-.027-.182-.338-1.09-.822-1.141a.564.564,0,0,0-.483.228,1.424,1.424,0,0,0-.037,1.046,3.658,3.658,0,0,0,1.131,1.828Z" transform="translate(-301.919 -68.676)"/><path class="a" d="M317.508,116.967a.137.137,0,0,1-.135-.116l-.979-6.417a.135.135,0,0,1,.028-.106.137.137,0,0,1,.1-.051l6.6-.532a.132.132,0,0,1,.1.032.137.137,0,0,1,.048.1l.483,6.706a.134.134,0,0,1-.034.1.136.136,0,0,1-.1.046l-6.106.244Zm-.823-6.429.94,6.151,5.843-.234-.459-6.428Z" transform="translate(-286.317 -99.312)"/><path class="a" d="M350.56,115.419a.1.1,0,0,1-.1-.1l-.211-2.687a.1.1,0,0,1,.1-.11l1.17-.079a.1.1,0,0,1,.109.1l.065,2.748a.1.1,0,0,1-.029.072.1.1,0,0,1-.071.032l-1.025.019Zm-.1-2.695.19,2.489.826-.015-.06-2.538Z" transform="translate(-316.954 -101.759)"/><path class="a" d="M353.442,152.294a.1.1,0,0,1-.1-.1l-.242-3.082a.1.1,0,0,1,.025-.075.1.1,0,0,1,.07-.034l.983-.062a.1.1,0,0,1,.075.027.1.1,0,0,1,.033.073l.073,3.091a.1.1,0,0,1-.1.1l-.813.051Zm-.132-3.089.226,2.883.614-.039-.068-2.887Z" transform="translate(-319.534 -134.788)"/><path class="a" d="M352.629,142.356a.1.1,0,0,1-.1-.1l-.06-.76a.1.1,0,0,1,.027-.077.1.1,0,0,1,.073-.033l1.025-.02a.1.1,0,0,1,.1.1l.018.722a.1.1,0,0,1-.1.1l-.982.061Zm.05-.766.044.556.783-.049-.012-.521Z" transform="translate(-318.964 -127.932)"/><path class="a" d="M321.28,142.71a.1.1,0,0,1-.1-.087l-.129-.89a.1.1,0,0,1,.1-.117l2.987-.056h0a.1.1,0,0,1,.1.1l.06.76a.1.1,0,0,1-.1.11l-2.917.183Zm-.012-.892.1.682,2.719-.17-.044-.564Z" transform="translate(-290.531 -128.104)"/><path class="a" d="M363.36,141.9a.1.1,0,0,1-.1-.1l-.018-.721a.1.1,0,0,1,.1-.106l2.376-.045h0a.1.1,0,0,1,.1.1l.049.616a.1.1,0,0,1-.1.11l-2.406.151Zm.087-.724.012.513,2.2-.138-.033-.416Z" transform="translate(-328.712 -127.534)"/><path class="a" d="M11.223,8.1q0,.38-1.928.707c-.029.228-.061.475-.1.728s-.082.535-.139.835a4.73,4.73,0,0,1-1.8,2.852,4.975,4.975,0,0,1-3.148,1.2A3.944,3.944,0,0,1,.987,13.175V13.2A4.967,4.967,0,0,1,0,9.916a15.531,15.531,0,0,1,2.355-8.01A5.779,5.779,0,0,1,3.4.535,2.4,2.4,0,0,1,5.054,0,9.215,9.215,0,0,1,7.71.921a2.159,2.159,0,0,1,.547.375,2.545,2.545,0,0,1,.46.57,3.387,3.387,0,0,1,.314.672,2.148,2.148,0,0,1,.118.675Q9.148,6.3,8.27,6.3q-.964,0-.964-1.711,0-.3.065-.986.064-.665.064-1.007,0-.534-.728-1.007a2.457,2.457,0,0,0-1.288-.472q-.855,0-1.885,1.927a15.34,15.34,0,0,0-2.077,7.154q0,3.191,2.4,3.191a4.247,4.247,0,0,0,2.741-1.2v.021A3.475,3.475,0,0,0,7.967,9.641c0-.4-.072-.649-.215-.749a19.327,19.327,0,0,0-5.8.574,1.038,1.038,0,0,1,.836-1.178A32.127,32.127,0,0,1,9.3,7.561Q11.223,7.561,11.223,8.1Z"/><path class="a" d="M116.992,26.282a16.122,16.122,0,0,1-.685,2.934q-.492,1.65-.643,2.056-.428,1.028-1.092,1.028-1.242,0-1.242-2.249,0-.771.129-2.314t.125-2.313a.773.773,0,0,1,.578-.279q.686,0,.685.514l-.257,1.263q-.172.942-.268,1.724a11.8,11.8,0,0,0-.1,1.446q0,1.178.364,1.178.214,0,.514-.964l.6-2.056q.19-.707.45-1.82c.1-.442.258-.665.475-.665Q116.992,25.767,116.992,26.282Zm-1.6-5.458q0,.986-.665.985a.873.873,0,0,1-.675-.332,1.1,1.1,0,0,1-.285-.739.893.893,0,0,1,.268-.579.729.729,0,0,1,.525-.3Q115.39,19.857,115.39,20.824Z" transform="translate(-102.557 -17.972)"/><path class="a" d="M143.08,10.3a8.485,8.485,0,0,1-.3,1.435q-.043.19-.171.706l-.345,1.371a2.969,2.969,0,0,1-.771,1.457h.021a2.358,2.358,0,0,1-.685.407,17.808,17.808,0,0,1,.514,3.726,9.444,9.444,0,0,1-.685,4.219q-.149.279-.665.279-1.691,0-1.692-3.92V19.7q0-3.834.321-8.1t.99-9.056a1.156,1.156,0,0,1,.814-.258,1.231,1.231,0,0,1,.855.429,4.818,4.818,0,0,0-.727,1.967q-.406,2.506-.675,4.611t-.371,3.87a1.4,1.4,0,0,1,.728.707h-.021c.013.029.049.118.106.268s.143.368.258.653q.407-.021.835-1.221v.021q.15-.428.38-1.263t.525-2.121v.022q.086-.451.385-.451C142.952,9.782,143.08,9.954,143.08,10.3Zm-2.566,9.531a12.1,12.1,0,0,0-.578-4.087,1.159,1.159,0,0,1-.2-.139c-.079-.065-.175-.154-.29-.268q-.086,1.479-.128,2.581t-.043,1.832c0,.242.011.521.032.835s.061.657.118,1.028v-.022q.257,1.371.475,1.371.19,0,.428-1.331a11.08,11.08,0,0,0,.185-1.8Z" transform="translate(-125.154 -2.072)"/><path class="a" d="M169.774,20.045a2.613,2.613,0,0,1-1.156.343,8.728,8.728,0,0,1-1.2.15h-11.15q-.451,0-.855-.022L154.6,20.5q-.236,1.626-.354,2.852t-.117,2.035q0,.9.01,1.467t.032.846q.107,1.071.385,1.071.665,0,1.586-4.134.255-1.119.554-1.119c.272,0,.407.179.407.535a11.751,11.751,0,0,1-.728,2.977q-.921,2.852-1.884,2.852-.879,0-1.264-1.563a8.012,8.012,0,0,1-.214-1.97q0-.365.128-1.82t.364-4.027a4.687,4.687,0,0,0-.557-.022q-.428,0-1.156-.022l-.6.19a1.4,1.4,0,0,0-.45-.342.445.445,0,0,1-.343-.429q0-.342.45-.342.579,0,1.264-.022t1.5-.065v-.018c0,.071,0,0,.01-.214s.018-.57.032-1.071l-.086-.407a.463.463,0,0,1,.45-.364,2.521,2.521,0,0,1,1.028.492v.579c-.014.1-.039.235-.074.407s-.083.38-.14.621h1.137q.322,0,.557.022c.086.014,10.593.025,11.107.031s1.242.026,2.186.054v.342Z" transform="translate(-136.104 -15.719)"/><path class="a" d="M212.9,70.372a8.511,8.511,0,0,1-.279,1.392,17.79,17.79,0,0,1-.814,2.852q-.793,1.949-1.9,1.95a1.624,1.624,0,0,1-1.5-.964A4.091,4.091,0,0,1,208,73.713q0-.686.054-1.393c.035-.471.088-.951.161-1.434q.38-2.376,1.285-2.376a1.321,1.321,0,0,1,.92.375,1.147,1.147,0,0,1,.408.867,8.614,8.614,0,0,1-.878,3.47q-.215.475-.418.846t-.375.674a.88.88,0,0,0,.3.622c.171.242.335.364.492.364q.749,0,1.949-4.5.342-1.306.557-1.306A.394.394,0,0,1,212.9,70.372Zm-3-.39c0-.328-.029-.492-.086-.492a.263.263,0,0,0-.065.128,14.407,14.407,0,0,0-.705,3.752,3.884,3.884,0,0,0,.247-.57q.117-.332.224-.739A8.427,8.427,0,0,0,209.9,69.982Z" transform="translate(-188.229 -61.998)"/><path class="a" d="M248.361,25.174c0,.128,0,.254.011.375s.017.24.031.354c.043.372.122.578.236.621a7.3,7.3,0,0,0,.921-2.355q.235-.836.429-1.5t.3-1.157q.149-.643.475-.643.363,0,.364.514a13.052,13.052,0,0,1-.793,3.232q-.946,2.833-1.588,2.833-.921,0-1.242-1.456a2.076,2.076,0,0,1-.118.311c-.05.106-.11.232-.182.375q-.557,1.007-1.136,1.007a1.16,1.16,0,0,1-1.113-.836,3.651,3.651,0,0,1-.279-1.5,14.147,14.147,0,0,1,.578-3.855q.729-2.506,1.671-2.506a1.242,1.242,0,0,1,.749.364.7.7,0,0,0,.065.054,1.009,1.009,0,0,1,.106.1c.029-.242.068-.553.118-.932s.111-.838.183-1.381c.043-.315.149-2.012.149-2.055q0-.534.342-.621a2.079,2.079,0,0,1,.407-.043.559.559,0,0,1,.622.643l-.492,2.715q-.043.108-.257,2.057l-.214,1.841q-.173,1.479-.258,2.345T248.361,25.174Zm-1.135-4.8q-.513,0-1.028,1.9a10.776,10.776,0,0,0-.451,2.613q0,1.82.236,1.82.279,0,.836-1.413a17.081,17.081,0,0,0,.644-2.116v-.257c.057-.543.1-.967.128-1.275s.043-.489.043-.546Q247.633,20.376,247.226,20.377Z" transform="translate(-221.419 -13.095)"/></svg>